<?xml version="1.0"?>
<svg width="72" height="60" xmlns="http://www.w3.org/2000/svg" xmlns:svg="http://www.w3.org/2000/svg">
 <title>Untitled</title>
 <desc>Created with Sketch.</desc>
 <g>
  <title>Layer 1</title>
  <rect id="svg_22" height="10.25" width="80.75" y="-5.875" x="-3.75" stroke-linecap="null" stroke-linejoin="null" stroke-dasharray="null" stroke-width="5" stroke="#000000" fill="none"/>
  <g id="svg_1" fill-rule="evenodd" fill="none">
   <g id="svg_2">
    <path id="svg_3" fill="#0B0B0A" d="m68.9,31.393l-1.945,-31.347l-19.443,2.367l-22.284,1.464l-25.228,1.46l1.985,13.363l1.83,20.027l0.555,21.273l28.976,-2.284l25.786,-1.712l12.804,-0.118l-3.036,-24.493"/>
    <path id="svg_4" fill="#fff" d="m16.763,44.634c-0.2,-1.5 -1.04,-2.216 -2.4,-3.175c-1.118,-0.787 -1.99,-1.344 -2.12,-2.323c-0.08,-0.614 0.28,-1.05 0.83,-1.12c0.643,-0.087 1.007,0.286 1.195,1.212l1.63,-0.45c-0.354,-1.667 -1.534,-2.524 -2.985,-2.334c-1.485,0.196 -2.548,1.506 -2.34,3.067c0.187,1.425 1.182,2.2 2.617,3.24c1.054,0.764 1.796,1.227 1.916,2.13c0.083,0.63 -0.322,1.103 -0.968,1.19c-0.742,0.095 -1.216,-0.37 -1.423,-1.45l-1.596,0.46c0.33,1.888 1.587,2.83 3.297,2.604c1.565,-0.207 2.556,-1.46 2.346,-3.053"/>
    <path id="svg_5" fill="#fff" d="m31.885,45.134l-1.432,-10.814l-2.322,0.306l-0.3,6.148c-0.027,0.534 0.004,1.264 0.077,1.815c-0.078,-0.582 -0.225,-1.313 -0.386,-1.79l-1.938,-5.837l-2.287,0.3l1.43,10.814l1.58,-0.208l-0.63,-4.766l-0.3,-2.063c-0.06,-0.444 -0.148,-1.07 -0.337,-1.87c0.05,0.132 0.227,0.64 0.504,1.49l2.296,7.006l0.87,-0.114l0.46,-7.37c0.024,-0.298 0.066,-0.817 0.097,-1.57c0.03,0.963 0.107,1.59 0.147,1.896l0.24,2.028l0.637,4.807l1.595,-0.21"/>
    <path id="svg_6" fill="#fff" d="m37.318,44.402l-0.216,-1.623l-2.21,0.3l-0.37,-2.717l2.206,-0.317l-0.2,-1.514l-2.205,0.316l-0.444,-3.42l2.613,-0.368l-0.204,-1.538l-4.323,0.594l1.43,10.813l3.92,-0.528"/>
    <path id="svg_7" fill="#fff" d="m39.503,37.22l1.837,-0.228l-0.205,-1.506l-5.73,0.743l0.206,1.503l2.185,-0.29l1.223,9.308l1.71,-0.224l-1.225,-9.307"/>
    <path id="svg_8" fill="#fff" d="m43.38,46.182l1.692,-0.223l-0.64,-4.842l1.756,-0.233l0.642,4.842l1.707,-0.225l-1.43,-10.815l-1.708,0.225l0.582,4.41l-1.758,0.234l-0.584,-4.41l-1.692,0.222l1.432,10.814"/>
    <path id="svg_9" fill="#fff" d="m45.537,52.488l-0.18,-1.466l-1.493,0.184l0.18,1.466l1.493,-0.184"/>
    <path id="svg_10" fill="#fff" d="m51.764,45.07l-1.43,-10.815l-1.743,0.23l1.433,10.813l1.74,-0.23"/>
    <path id="svg_11" fill="#fff" d="m51.852,34.055l1.432,10.813l1.58,-0.21l-0.57,-4.303l-0.203,-1.344c-0.03,-0.23 -0.137,-0.73 -0.368,-1.477c0.2,0.503 0.395,0.866 0.528,1.128l2.937,5.693l1.596,-0.21l-1.434,-10.815l-1.594,0.21l0.68,5.15l0.16,1.002c0.024,0.186 0.115,0.687 0.36,1.435c-0.267,-0.65 -0.446,-1.018 -0.492,-1.105l-3.082,-6.17l-1.53,0.203"/>
    <path id="svg_12" fill="#fff" d="m63.25,49.624l-0.293,-2.368l-2.426,0.298l0.133,1.068l1.038,-0.128l0.08,0.64c-0.2,0.17 -0.46,0.276 -0.815,0.32c-0.836,0.105 -1.507,-0.432 -1.612,-1.282l0,-0.014c-0.1,-0.805 0.407,-1.515 1.168,-1.608c0.522,-0.066 0.92,0.07 1.334,0.337l0.732,-1.134c-0.616,-0.412 -1.307,-0.618 -2.234,-0.504c-1.633,0.2 -2.69,1.552 -2.5,3.086l0.003,0.014c0.196,1.594 1.563,2.57 3.205,2.367c0.957,-0.117 1.688,-0.566 2.19,-1.093"/>
    <path id="svg_13" fill="#fff" d="m65.368,43.268l-0.723,-5.453l-2.735,0.36l0.183,1.378l1.09,-0.144l0.225,1.684c0.097,0.752 -0.182,1.18 -0.78,1.256c-0.6,0.08 -0.98,-0.26 -1.08,-1.01l-0.8,-6.035c-0.1,-0.75 0.183,-1.163 0.783,-1.24c0.598,-0.08 0.978,0.245 1.078,0.995l0.152,1.148l1.643,-0.215l-0.132,-0.997c-0.24,-1.838 -1.227,-2.658 -2.873,-2.44c-1.745,0.23 -2.597,1.402 -2.375,3.086l0.732,5.543c0.26,1.962 1.23,2.893 2.795,2.687c0.776,-0.103 1.266,-0.477 1.565,-1.202l0.438,0.704l0.815,-0.106"/>
    <path id="svg_14" fill="#fff" d="m20.518,45.22c-0.597,0.08 -0.978,-0.26 -1.078,-1.01l-0.798,-6.035c-0.1,-0.75 0.182,-1.163 0.778,-1.242c0.6,-0.078 0.978,0.247 1.077,0.995l0.798,6.036c0.1,0.75 -0.18,1.176 -0.777,1.256zm2.512,-1.692l-0.734,-5.545c-0.232,-1.747 -1.39,-2.637 -2.987,-2.425c-1.743,0.228 -2.596,1.4 -2.374,3.084l0.735,5.545c0.263,1.976 1.324,2.88 3.065,2.65c1.71,-0.226 2.55,-1.395 2.295,-3.31l0,0.001z"/>
    <path id="svg_15" fill="#fff" d="m48.904,50.836c-0.798,0.098 -1.43,-0.495 -1.523,-1.254l-0.002,-0.015c-0.092,-0.76 0.363,-1.472 1.16,-1.57c0.805,-0.1 1.438,0.494 1.533,1.255l0,0.014c0.094,0.758 -0.358,1.47 -1.166,1.57l-0.002,0zm2.602,-1.74l0,-0.015c-0.187,-1.512 -1.543,-2.573 -3.17,-2.37c-1.625,0.2 -2.694,1.576 -2.507,3.085l0.002,0.015c0.186,1.51 1.54,2.574 3.166,2.373c1.628,-0.2 2.697,-1.577 2.51,-3.086l-0.001,-0.002z"/>
    <path id="svg_16" fill="#fff" d="m54.832,48.448l-0.963,0.12l-0.158,-1.266l0.956,-0.116c0.49,-0.062 0.816,0.113 0.867,0.526l0.002,0.015c0.048,0.384 -0.208,0.66 -0.705,0.72l0.001,0.001zm1.241,0.899c0.624,-0.358 0.986,-0.945 0.886,-1.75l-0.002,-0.014c-0.064,-0.52 -0.273,-0.905 -0.618,-1.168c-0.4,-0.317 -0.982,-0.46 -1.787,-0.358l-2.494,0.306l0.65,5.26l1.46,-0.18l-0.196,-1.593l0.625,-0.076l0.014,-0.002l1.26,1.463l1.687,-0.207l-1.486,-1.68l0.001,-0.001z"/>
    <path id="svg_17" fill="#fff" d="m26.954,25.742c-0.56,1.285 -1.367,2.222 -2.424,2.805c-1.057,0.585 -2.524,0.956 -4.402,1.12l-1.553,0.137l-1.438,-16.394l1.552,-0.136c1.77,-0.155 3.253,-0.033 4.443,0.366c1.19,0.397 2.18,1.225 2.967,2.483c0.787,1.26 1.265,2.832 1.43,4.718c0.174,1.983 -0.02,3.615 -0.576,4.902l0.001,-0.001zm7.333,-5.506c-0.187,-2.126 -0.773,-4.025 -1.758,-5.695c-0.986,-1.673 -2.214,-2.97 -3.684,-3.887c-1.47,-0.918 -2.974,-1.463 -4.51,-1.632c-1.536,-0.17 -3.54,-0.145 -6.013,0.07l-11.752,1.025l0.368,4.186l3.76,-0.33l1.438,16.394l-3.76,0.33l0.366,4.183l12.52,-1.096c2.105,-0.182 3.65,-0.403 4.64,-0.656c0.992,-0.255 2.063,-0.72 3.214,-1.387c1.15,-0.667 2.114,-1.518 2.892,-2.548c0.78,-1.03 1.392,-2.353 1.838,-3.963c0.445,-1.612 0.593,-3.277 0.442,-4.995l-0.001,0.001z"/>
    <path id="svg_18" fill="#fff" d="m54.68,25.363c-1.14,1.57 -2.73,2.46 -4.543,2.672c-1.946,0.227 -3.674,-0.338 -5.083,-1.602c-1.428,-1.285 -2.338,-3.182 -2.62,-5.587c-0.326,-2.772 0.162,-4.897 1.256,-6.414c1.14,-1.59 2.745,-2.462 4.533,-2.67c1.983,-0.233 3.755,0.34 5.17,1.666c1.385,1.297 2.284,3.182 2.57,5.606c0.316,2.696 -0.175,4.803 -1.283,6.33l0,-0.001zm8.16,-7.059c-0.403,-3.436 -1.977,-6.406 -4.685,-8.528c-2.63,-2.063 -6.126,-3 -10.458,-2.49c-4.335,0.507 -7.525,2.233 -9.6,4.86c-2.12,2.688 -2.963,5.93 -2.562,9.355c0.39,3.32 1.92,6.262 4.567,8.427c2.587,2.122 6.114,3.096 10.56,2.575c4.332,-0.507 7.504,-2.227 9.58,-4.823c2.163,-2.704 3,-5.973 2.6,-9.378l-0.002,0.002z"/>
   </g>
  </g>
  <rect id="svg_28" height="65" width="8.75" y="1.125" x="-7" stroke-linecap="null" stroke-linejoin="null" stroke-dasharray="null" stroke-width="5" stroke="#000000" fill="none"/>
  <rect id="svg_24" height="2" width="76.25" y="-1.375" x="0" stroke-linecap="null" stroke-linejoin="null" stroke-dasharray="null" stroke-width="5" stroke="#000000" fill="none"/>
  <rect id="svg_25" height="24" width="3.5" y="2.875" x="67.25" stroke-linecap="null" stroke-linejoin="null" stroke-dasharray="null" stroke-width="5" stroke="#000000" fill="none"/>
  <rect id="svg_26" height="33.75" width="2" y="24.625" x="70.5" stroke-linecap="null" stroke-linejoin="null" stroke-dasharray="null" stroke-width="5" stroke="#000000" fill="none"/>
  <rect id="svg_27" height="3" width="67.25" y="57.125" x="6.75" stroke-linecap="null" stroke-linejoin="null" stroke-dasharray="null" stroke-width="5" stroke="#000000" fill="none"/>
 </g>
</svg>